<svg width="24" height="24" viewBox="0 0 24 24" fill="none" xmlns="http://www.w3.org/2000/svg">
<path d="M12.8212 13.6921L14.5902 8.56218C15.3232 6.4364 16.6768 4.60568 18.4719 3.31204C18.916 2.99203 19.5484 3.23499 19.6937 3.78141C20.2811 5.99031 20.203 8.31104 19.47 10.4368L17.701 15.5667C16.968 17.6925 15.6144 19.5232 13.8193 20.8169C13.3752 21.1369 12.7428 20.8939 12.5975 20.3475C12.0101 18.1386 12.0882 15.8179 12.8212 13.6921Z" stroke="#342E34" stroke-width="1.056"/>
<line x1="0.528" y1="-0.528" x2="3.9011" y2="-0.528" transform="matrix(0.325819 -0.944844 0.934052 0.358829 17.4014 10.1772)" stroke="#342E34" stroke-width="1.056" stroke-linecap="round"/>
<line y1="-0.528" x2="5.30597" y2="-0.528" transform="matrix(0.934052 0.358829 -0.325819 0.944844 12.9849 13.219)" stroke="#342E34" stroke-width="1.056"/>
<line y1="-0.528" x2="5.30597" y2="-0.528" transform="matrix(0.934052 0.358829 -0.325818 0.944844 11.9009 16.3586)" stroke="#342E34" stroke-width="1.056"/>
<path d="M11.6182 10.3118L9.84926 15.4417C9.11621 17.5675 7.76265 19.3982 5.96752 20.6919C5.52345 21.0119 4.89101 20.7689 4.74572 20.2225C4.15839 18.0136 4.23641 15.6929 4.96946 13.5671L6.73844 8.43719C7.47149 6.31141 8.82506 4.48069 10.6202 3.18705C11.0643 2.86704 11.6967 3.11 11.842 3.65642C12.4293 5.86532 12.3513 8.18605 11.6182 10.3118Z" stroke="#342E34" stroke-width="1.056"/>
<path d="M12.146 8.76575L10.0287 6.76758L7.18995 6.86181" stroke="#342E34" stroke-width="1.056"/>
<path d="M9.2636 17.1369L6.42481 17.2311L4.30755 15.233" stroke="#342E34" stroke-width="1.056"/>
<path d="M9.98577 15.0445L7.14698 15.1387L5.02972 13.1406" stroke="#342E34" stroke-width="1.056"/>
</svg>
