<svg width="32" height="32" viewBox="0 0 32 32" fill="none" xmlns="http://www.w3.org/2000/svg">
<g clip-path="url(#clip0_2006_10701)">
<path d="M23.8125 8.5H21.9167V9.66667H23.6667V22.5H7.33332V9.66667H9.08332V8.5H7.18749C7.05113 8.50228 6.91655 8.5314 6.79144 8.5857C6.66634 8.63999 6.55315 8.71841 6.45836 8.81645C6.36356 8.9145 6.28901 9.03026 6.23896 9.15713C6.1889 9.28399 6.16434 9.41947 6.16665 9.55583V22.6108C6.16434 22.7472 6.1889 22.8827 6.23896 23.0095C6.28901 23.1364 6.36356 23.2522 6.45836 23.3502C6.55315 23.4483 6.66634 23.5267 6.79144 23.581C6.91655 23.6353 7.05113 23.6644 7.18749 23.6667H23.8125C23.9488 23.6644 24.0834 23.6353 24.2085 23.581C24.3336 23.5267 24.4468 23.4483 24.5416 23.3502C24.6364 23.2522 24.711 23.1364 24.761 23.0095C24.8111 22.8827 24.8356 22.7472 24.8333 22.6108V9.55583C24.8356 9.41947 24.8111 9.28399 24.761 9.15713C24.711 9.03026 24.6364 8.9145 24.5416 8.81645C24.4468 8.71841 24.3336 8.63999 24.2085 8.5857C24.0834 8.5314 23.9488 8.50228 23.8125 8.5Z" fill="#622F60"/>
<path d="M9.6665 13.1666H10.8332V14.3333H9.6665V13.1666Z" fill="#622F60"/>
<path d="M13.1665 13.1666H14.3332V14.3333H13.1665V13.1666Z" fill="#622F60"/>
<path d="M16.6665 13.1666H17.8332V14.3333H16.6665V13.1666Z" fill="#622F60"/>
<path d="M20.1665 13.1666H21.3332V14.3333H20.1665V13.1666Z" fill="#622F60"/>
<path d="M9.6665 16.0834H10.8332V17.25H9.6665V16.0834Z" fill="#622F60"/>
<path d="M13.1665 16.0834H14.3332V17.25H13.1665V16.0834Z" fill="#622F60"/>
<path d="M16.6665 16.0834H17.8332V17.25H16.6665V16.0834Z" fill="#622F60"/>
<path d="M20.1665 16.0834H21.3332V17.25H20.1665V16.0834Z" fill="#622F60"/>
<path d="M9.6665 19H10.8332V20.1667H9.6665V19Z" fill="#622F60"/>
<path d="M13.1665 19H14.3332V20.1667H13.1665V19Z" fill="#622F60"/>
<path d="M16.6665 19H17.8332V20.1667H16.6665V19Z" fill="#622F60"/>
<path d="M20.1665 19H21.3332V20.1667H20.1665V19Z" fill="#622F60"/>
<path d="M10.8333 10.8333C10.988 10.8333 11.1364 10.7718 11.2458 10.6624C11.3552 10.553 11.4167 10.4047 11.4167 10.25V6.74996C11.4167 6.59525 11.3552 6.44688 11.2458 6.33748C11.1364 6.22808 10.988 6.16663 10.8333 6.16663C10.6786 6.16663 10.5303 6.22808 10.4209 6.33748C10.3115 6.44688 10.25 6.59525 10.25 6.74996V10.25C10.25 10.4047 10.3115 10.553 10.4209 10.6624C10.5303 10.7718 10.6786 10.8333 10.8333 10.8333Z" fill="#622F60"/>
<path d="M20.1668 10.8333C20.3215 10.8333 20.4699 10.7718 20.5793 10.6624C20.6887 10.553 20.7502 10.4047 20.7502 10.25V6.74996C20.7502 6.59525 20.6887 6.44688 20.5793 6.33748C20.4699 6.22808 20.3215 6.16663 20.1668 6.16663C20.0121 6.16663 19.8637 6.22808 19.7544 6.33748C19.645 6.44688 19.5835 6.59525 19.5835 6.74996V10.25C19.5835 10.4047 19.645 10.553 19.7544 10.6624C19.8637 10.7718 20.0121 10.8333 20.1668 10.8333Z" fill="#622F60"/>
<path d="M12.5835 8.5H18.4168V9.66667H12.5835V8.5Z" fill="#622F60"/>
</g>
<defs>
<clipPath id="clip0_2006_10701">
<rect width="21" height="21" fill="white" transform="translate(5 5)"/>
</clipPath>
</defs>
</svg>
