<svg width="32" height="32" viewBox="0 0 32 32" fill="none" xmlns="http://www.w3.org/2000/svg">
<path d="M11.8222 7.17859C11.2735 7.17859 10.7301 7.28667 10.2231 7.49666C9.71616 7.70666 9.25552 8.01445 8.8675 8.40246C8.47948 8.79048 8.17169 9.25112 7.9617 9.75809C7.75171 10.2651 7.64362 10.8084 7.64362 11.3572C7.64362 11.9059 7.75171 12.4493 7.9617 12.9562C8.17169 13.4632 8.47948 13.9238 8.8675 14.3119C9.25552 14.6999 9.71616 15.0077 10.2231 15.2177C10.7301 15.4276 11.2735 15.5357 11.8222 15.5357C12.9304 15.5357 13.9933 15.0955 14.7769 14.3119C15.5605 13.5282 16.0008 12.4654 16.0008 11.3572C16.0008 10.2489 15.5605 9.1861 14.7769 8.40246C13.9933 7.61883 12.9304 7.17859 11.8222 7.17859ZM9.03648 11.3572C9.03648 10.9913 9.10854 10.6291 9.24853 10.2911C9.38853 9.95314 9.59372 9.64604 9.8524 9.38736C10.1111 9.12869 10.4182 8.92349 10.7561 8.7835C11.0941 8.6435 11.4564 8.57145 11.8222 8.57145C12.188 8.57145 12.5503 8.6435 12.8882 8.7835C13.2262 8.92349 13.5333 9.12869 13.792 9.38736C14.0507 9.64604 14.2559 9.95314 14.3959 10.2911C14.5359 10.6291 14.6079 10.9913 14.6079 11.3572C14.6079 12.096 14.3144 12.8045 13.792 13.327C13.2696 13.8494 12.561 14.1429 11.8222 14.1429C11.0834 14.1429 10.3748 13.8494 9.8524 13.327C9.32998 12.8045 9.03648 12.096 9.03648 11.3572ZM21.5722 9.03573C20.7102 9.03573 19.8836 9.37814 19.2741 9.98763C18.6646 10.5971 18.3222 11.4238 18.3222 12.2857C18.3222 13.1477 18.6646 13.9743 19.2741 14.5838C19.8836 15.1933 20.7102 15.5357 21.5722 15.5357C22.4341 15.5357 23.2608 15.1933 23.8703 14.5838C24.4798 13.9743 24.8222 13.1477 24.8222 12.2857C24.8222 11.4238 24.4798 10.5971 23.8703 9.98763C23.2608 9.37814 22.4341 9.03573 21.5722 9.03573ZM19.7151 12.2857C19.7151 11.7932 19.9107 11.3208 20.259 10.9725C20.6073 10.6243 21.0797 10.4286 21.5722 10.4286C22.0647 10.4286 22.5371 10.6243 22.8854 10.9725C23.2337 11.3208 23.4293 11.7932 23.4293 12.2857C23.4293 12.7783 23.2337 13.2506 22.8854 13.5989C22.5371 13.9472 22.0647 14.1429 21.5722 14.1429C21.0797 14.1429 20.6073 13.9472 20.259 13.5989C19.9107 13.2506 19.7151 12.7783 19.7151 12.2857ZM4.85791 19.4822C4.85791 18.928 5.07803 18.3966 5.46985 18.0048C5.86166 17.613 6.39308 17.3929 6.9472 17.3929H16.6972C17.2513 17.3929 17.7827 17.613 18.1745 18.0048C18.5664 18.3966 18.7865 18.928 18.7865 19.4822V19.9752C18.7853 20.0504 18.78 20.1254 18.7707 20.1999C18.7498 20.3915 18.7156 20.5814 18.6686 20.7682C18.515 21.378 18.2413 21.951 17.8635 22.4536C16.9219 23.7099 15.1261 24.8214 11.8222 24.8214C8.51834 24.8214 6.72248 23.7099 5.78091 22.4536C5.4034 21.9509 5.13002 21.3779 4.97677 20.7682C4.91614 20.5255 4.87729 20.2778 4.8607 20.0282C4.85954 20.0105 4.85861 19.9929 4.85791 19.9752V19.9483V19.4822ZM6.25077 19.9418V19.9585L6.25912 20.0514C6.26841 20.1387 6.28698 20.2696 6.32784 20.4302C6.4361 20.8597 6.62864 21.2634 6.89427 21.6179C7.52012 22.4508 8.8582 23.4286 11.8222 23.4286C14.7862 23.4286 16.1243 22.4508 16.7492 21.6179C17.0742 21.1852 17.2358 20.7524 17.3156 20.4302C17.3546 20.2755 17.3804 20.1177 17.3927 19.9585L17.3936 19.9418V19.4822C17.3936 19.2975 17.3203 19.1203 17.1896 18.9897C17.059 18.8591 16.8819 18.7857 16.6972 18.7857H6.9472C6.76249 18.7857 6.58535 18.8591 6.45475 18.9897C6.32414 19.1203 6.25077 19.2975 6.25077 19.4822V19.9418ZM18.8793 22.6114C19.5971 22.8315 20.483 22.9643 21.5703 22.9643C24.1425 22.9643 25.5799 22.2252 26.3608 21.3337C26.6731 20.981 26.9045 20.5642 27.0387 20.1127C27.0917 19.9303 27.1256 19.743 27.1399 19.5537L27.1418 19.51V19.4822C27.1418 18.928 26.9216 18.3966 26.5298 18.0048C26.138 17.613 25.6066 17.3929 25.0525 17.3929H18.8738C19.2396 17.7745 19.5071 18.2527 19.6333 18.7857H25.0534C25.2365 18.7857 25.4123 18.8578 25.5426 18.9864C25.6729 19.115 25.7474 19.2898 25.7498 19.4729C25.7416 19.5572 25.7254 19.6405 25.7016 19.7217C25.6239 19.979 25.4907 20.2161 25.3116 20.4163C24.8742 20.9177 23.8751 21.5714 21.5703 21.5714C20.6966 21.5714 20.0103 21.4777 19.4708 21.3328C19.3277 21.782 19.129 22.2115 18.8793 22.6114Z" fill="#622F60"/>
</svg>
