<svg width="24" height="24" viewBox="0 0 24 24" fill="none" xmlns="http://www.w3.org/2000/svg">
<path d="M18 17.2499H19.125C19.6218 17.2484 20.0979 17.0504 20.4492 16.6991C20.8005 16.3478 20.9985 15.8717 21 15.3749V7.87488C20.9985 7.37805 20.8005 6.902 20.4492 6.55069C20.0979 6.19938 19.6218 6.00136 19.125 5.99988H4.875C4.37818 6.00136 3.90212 6.19938 3.55081 6.55069C3.1995 6.902 3.00148 7.37805 3 7.87488V15.3749C3.00148 15.8717 3.1995 16.3478 3.55081 16.6991C3.90212 17.0504 4.37818 17.2484 4.875 17.2499H6" stroke="#342E34" stroke-width="1.5" stroke-linejoin="round"/>
<path d="M16.8585 11.2502H7.13854C6.50893 11.2502 5.99854 11.7606 5.99854 12.3902V19.8602C5.99854 20.4898 6.50893 21.0002 7.13854 21.0002H16.8585C17.4881 21.0002 17.9985 20.4898 17.9985 19.8602V12.3902C17.9985 11.7606 17.4881 11.2502 16.8585 11.2502Z" stroke="#342E34" stroke-width="1.5" stroke-linejoin="round"/>
<path d="M17.9985 6.00012V4.87512C17.9971 4.3783 17.799 3.90225 17.4477 3.55094C17.0964 3.19963 16.6204 3.00161 16.1235 3.00012H7.87354C7.37671 3.00161 6.90066 3.19963 6.54935 3.55094C6.19804 3.90225 6.00002 4.3783 5.99854 4.87512V6.00012" stroke="#342E34" stroke-width="1.5" stroke-linejoin="round"/>
<path d="M18.3735 8.25012C18.5806 8.25012 18.7485 8.41802 18.7485 8.62512C18.7485 8.83223 18.5806 9.00012 18.3735 9.00012C18.1664 9.00012 17.9985 8.83223 17.9985 8.62512C17.9985 8.41802 18.1664 8.25012 18.3735 8.25012Z" fill="#342E34" stroke="#342E34" stroke-width="1.5"/>
</svg>
