<svg width="32" height="32" viewBox="0 0 32 32" fill="none" xmlns="http://www.w3.org/2000/svg">
<path d="M15.5005 23.9064C20.1952 23.9064 24.001 20.1218 24.001 15.4532C24.001 10.7846 20.1952 7 15.5005 7C10.8058 7 7 10.7846 7 15.4532C7 20.1218 10.8058 23.9064 15.5005 23.9064Z" stroke="#622F60" stroke-width="1.2" stroke-linecap="round" stroke-linejoin="round"/>
<path d="M7.65576 18.707H9.94436C10.5513 18.707 11.1334 18.4673 11.5626 18.0405C11.9918 17.6136 12.233 17.0348 12.233 16.4312V14.4804C12.233 13.8768 12.4741 13.298 12.9033 12.8712C13.3325 12.4443 13.9146 12.2046 14.5216 12.2046C15.1285 12.2046 15.7106 11.9648 16.1398 11.538C16.569 11.1112 16.8102 10.5323 16.8102 9.9287V7.09363" stroke="#622F60" stroke-width="1.2" stroke-linecap="round" stroke-linejoin="round"/>
<path d="M23.9979 15.3206C23.3431 14.9828 22.617 14.8045 21.8793 14.8004H19.0938C18.4868 14.8004 17.9047 15.0402 17.4755 15.467C17.0463 15.8938 16.8052 16.4727 16.8052 17.0763C16.8052 17.6799 17.0463 18.2588 17.4755 18.6856C17.9047 19.1124 18.4868 19.3521 19.0938 19.3521C19.5273 19.3521 19.9431 19.5234 20.2497 19.8283C20.5563 20.1331 20.7285 20.5466 20.7285 20.9778V22.1092" stroke="#622F60" stroke-width="1.2" stroke-linecap="round" stroke-linejoin="round"/>
<path d="M14.9722 23.3759C15.1156 23.0542 15.1378 22.6644 14.9719 22.3191C14.806 21.9738 14.6226 21.4804 14.2446 21.3137C13.8666 21.147 13.4472 21.115 13.0785 21.2246C12.7097 21.3342 12.422 21.5764 12.2786 21.8981C12.1762 22.1279 11.9706 22.3009 11.7073 22.3792C11.4439 22.4575 11.1443 22.4346 10.8743 22.3156L10.1658 22.0031" stroke="#622F60" stroke-width="1.2" stroke-linecap="round" stroke-linejoin="round"/>
</svg>
